<?xml version="1.0" encoding="UTF-8" standalone="no"?>
<svg
   xmlns:dc="http://purl.org/dc/elements/1.1/"
   xmlns:cc="http://creativecommons.org/ns#"
   xmlns:rdf="http://www.w3.org/1999/02/22-rdf-syntax-ns#"
   xmlns:svg="http://www.w3.org/2000/svg"
   xmlns="http://www.w3.org/2000/svg"
   xmlns:sodipodi="http://sodipodi.sourceforge.net/DTD/sodipodi-0.dtd"
   xmlns:inkscape="http://www.inkscape.org/namespaces/inkscape"
   viewBox="0 0 869 598"
   width="869"
   height="598"
   version="1.1"
   id="svg18"
   sodipodi:docname="v2.svg"
   inkscape:version="0.92.4 5da689c313, 2019-01-14">
  <metadata
     id="metadata22">
    <rdf:RDF>
      <cc:Work
         rdf:about="">
        <dc:format>image/svg+xml</dc:format>
        <dc:type
           rdf:resource="http://purl.org/dc/dcmitype/StillImage" />
      </cc:Work>
    </rdf:RDF>
  </metadata>
  <sodipodi:namedview
     pagecolor="#ffffff"
     bordercolor="#666666"
     borderopacity="1"
     objecttolerance="10"
     gridtolerance="10"
     guidetolerance="10"
     inkscape:pageopacity="0"
     inkscape:pageshadow="2"
     inkscape:window-width="1366"
     inkscape:window-height="700"
     id="namedview20"
     showgrid="false"
     inkscape:zoom="0.32105869"
     inkscape:cx="434.5"
     inkscape:cy="299"
     inkscape:window-x="0"
     inkscape:window-y="0"
     inkscape:window-maximized="1"
     inkscape:current-layer="svg18" />
  <defs
     id="defs5">
    <clipPath
       clipPathUnits="userSpaceOnUse"
       id="cp1">
      <path
         d="M0 0L869 0L869 598L0 598Z"
         id="path2" />
    </clipPath>
  </defs>
  <style
     id="style7">
		tspan { white-space:pre }
		.shp0 { opacity: 0.361;fill: #ffffff } 
		.shp1 { opacity: 0.6;mix-blend-mode: color-dodge;fill: #5c5c5c } 
		.shp2 { opacity: 0.42;mix-blend-mode: overlay;fill: #292929 } 
		.shp3 { opacity: 0.6;mix-blend-mode: overlay;fill: #5c5c5c } 
		.shp4 { opacity: 0.6;mix-blend-mode: overlay;fill: #292929 } 
	</style>
  <g
     id="Page 1"
     clip-path="url(#cp1)"
     style="fill:#3bafd9;fill-opacity:1;opacity:0.2">
    <path
       id="Path 1"
       class="shp0"
       d="M24.66,598l-9.39,-5.42v-42.43l36.75,-21.21l36.75,21.21v42.43l-9.39,5.42zM478.93,268.82v29.56l-25.61,14.78l-25.61,-14.78v-29.56l25.61,-14.78zM429.66,269.95v27.32l23.66,13.66l23.66,-13.66v-27.32l-23.66,-13.66z"
       style="fill:#3bafd9;fill-opacity:1" />
    <path
       id="Path 2"
       class="shp1"
       d="M161.63,598v-22.46l71.84,-41.47l71.84,41.47v22.46zM599.08,482.27l-17.91,10.34l-17.91,-10.34v-20.68l17.91,-10.34l17.91,10.34zM260.1,402.98v6.96l-6.03,3.48l-6.03,-3.48v-6.96l6.03,-3.48zM248.5,403.25v6.43l5.57,3.22l5.57,-3.22v-6.43l-5.57,-3.22zM510.83,506.76v76.32l-25.84,14.92h-80.52l-25.84,-14.92v-76.32l66.1,-38.16zM383.66,509.66v70.52l22.17,12.8h77.83l22.17,-12.8v-70.52l-61.08,-35.26z"
       style="fill:#3bafd9;fill-opacity:1" />
    <path
       id="Path 3"
       class="shp2"
       d="M441.99,549.21l-46.82,27.03v21.76h-141.26v-80.39l55.07,-31.81v-13.39l66.5,-38.39l66.5,38.39zM868.71,231.4l-70.15,40.5l-79.21,-45.73v-91.46l79.21,-45.73l70.15,40.5zM259.28,520.71v71.93h130.54v-71.93l-65.27,-37.69z"
       style="fill:#3bafd9;fill-opacity:1" />
    <path
       id="Path 4"
       class="shp1"
       d="M755.83,72.16v8.23l-7.13,4.11l-7.13,-4.11v-8.23l7.13,-4.11zM742.11,72.48v7.6l6.59,3.8l6.58,-3.8v-7.6l-6.58,-3.8zM24.51,598h-24.51v-14.15zM283.66,437.66v123.71l-63.45,36.63h-87.39l-63.45,-36.63v-123.71l107.15,-61.86zM77.5,442.35v114.32l57.5,33.19h83.03l57.5,-33.19v-114.32l-99.01,-57.16zM750.31,377.38v6.8l-5.89,3.4l-5.89,-3.4v-6.8l5.89,-3.4zM738.99,377.64v6.28l5.44,3.14l5.44,-3.14v-6.28l-5.44,-3.14z"
       style="fill:#3bafd9;fill-opacity:1" />
    <path
       id="Path 5"
       class="shp0"
       d="M614.97,288.86l-71.26,41.14l-71.27,-41.14v-82.28l60.3,-34.82v-38.11l71.9,-41.52l71.9,41.52v83.02l-61.58,35.55zM473.79,207.36v80.72l69.91,40.36l69.91,-40.36v-35.09l-8.97,5.18l-71.9,-41.51l0,-43.35zM534.1,134.43v81.45l70.54,40.72l70.54,-40.72v-81.45l-70.54,-40.74z"
       style="fill:#3bafd9;fill-opacity:1" />
    <path
       id="Path 6"
       class="shp3"
       d="M359.39,458.07v16.1l-13.94,8.05l-13.94,-8.05v-16.1l13.94,-8.05zM331.77,458.22v15.79l13.68,7.9l13.68,-7.9v-15.79l-13.68,-7.9zM868.71,20.64v134.65l-36.41,21.03l-76.52,-44.18v-88.35l76.52,-44.18zM757.23,44.62v86.67l75.07,43.34l34.96,-20.19v-132.97l-34.96,-20.19z"
       style="fill:#3bafd9;fill-opacity:1" />
    <path
       id="Path 7"
       class="shp4"
       d="M560.8,401.06v97.48l-84.42,48.74l-84.42,-48.74v-97.48l84.42,-48.74zM393.55,401.98v95.63l82.82,47.81l82.82,-47.81v-95.63l-82.82,-47.81z"
       style="fill:#3bafd9;fill-opacity:1" />
    <path
       id="Path 8"
       class="shp1"
       d="M868.71,205.75v143.91l-21.95,12.68l-73.29,-42.33v-84.62l73.29,-42.31zM774.86,236.19v83.01l71.9,41.52l20.55,-11.87v-142.3l-20.55,-11.87zM703.05,422.65l-56.64,32.71l-56.65,-32.71v-5.02l-85.68,-49.48v-140.25l121.47,-70.12l121.44,70.12v140.25l-43.94,25.38zM590.85,422.03l55.57,32.09l55.56,-32.09v-27.88l-76.42,44.15l-34.71,-20.05zM506.4,229.23v137.59l119.16,68.82l119.14,-68.82v-137.59l-119.14,-68.79zM419.11,328.38v50.79l-43.98,25.4l-43.99,-25.4v-50.79l43.99,-25.4zM331.97,328.86v49.83l43.15,24.91l43.15,-24.91v-49.83l-43.15,-24.91zM733,269.25v8l-6.93,4l-6.93,-4v-8l6.93,-4zM719.28,269.33v7.85l6.8,3.92l6.8,-3.92v-7.85l-6.8,-3.93z"
       style="fill:#3bafd9;fill-opacity:1" />
  </g>
</svg>
