<svg width="220" height="220" xmlns="http://www.w3.org/2000/svg">

 <g>
  <title>background</title>
  <rect fill="rgba(255, 255, 255, 0)" id="canvas_background" height="222" width="222" y="-1" x="-1"/>
  <g display="none" overflow="visible" y="0" x="0" height="100%" width="100%" id="canvasGrid">
   <rect fill="url(#gridpattern)" stroke-width="0" y="0" x="0" height="100%" width="100%"/>
  </g>
 </g>
 <g>
  <title>Layer 1</title>
  <ellipse ry="20" rx="20" id="svg_2" cy="20" cx="65" stroke-width="0" stroke="#000" fill="#00bfe4"/>
  <ellipse ry="20" rx="20" id="svg_3" cy="20" cx="20" stroke-width="0" stroke="#000" fill="#00bfe4"/>
  <ellipse ry="20" rx="20" id="svg_8" cy="20" cx="110" stroke-width="0" stroke="#000" fill="#00bfe4"/>
  <ellipse ry="20" rx="20" id="svg_16" cy="65" cx="110" stroke-width="0" stroke="#000" fill="#00bfe4"/>
  <ellipse ry="20" rx="20" id="svg_17" cy="65" cx="65" stroke-width="0" stroke="#000" fill="#00bfe4"/>
  <ellipse ry="20" rx="20" id="svg_18" cy="65" cx="155" stroke-width="0" stroke="#000" fill="#00bfe4"/>
  <ellipse ry="20" rx="20" id="svg_19" cy="110" cx="155" stroke-width="0" stroke="#000" fill="#00bfe4"/>
  <ellipse ry="20" rx="20" id="svg_20" cy="110" cx="110" stroke-width="0" stroke="#000"/>
  <ellipse ry="20" rx="20" id="svg_21" cy="110" cx="200" stroke-width="0" stroke="#000" fill="#00bfe4"/>
  <ellipse ry="20" rx="20" id="svg_22" cy="155" cx="110" stroke-width="0" stroke="#000" fill="#00bfe4"/>
  <ellipse ry="20" rx="20" id="svg_23" cy="155" cx="65" stroke-width="0" stroke="#000" fill="#00bfe4"/>
  <ellipse ry="20" rx="20" id="svg_24" cy="155" cx="155" stroke-width="0" stroke="#000"/>
  <ellipse ry="20" rx="20" id="svg_25" cy="200" cx="65" stroke-width="0" stroke="#000" fill="#00bfe4"/>
  <ellipse ry="20" rx="20" id="svg_26" cy="200" cx="20" stroke-width="0" stroke="#000" fill="#00bfe4"/>
  <ellipse ry="20" rx="20" id="svg_27" cy="200" cx="110" stroke-width="0" stroke="#000" fill="#00bfe4"/>


  <animate id="svg_20" attributeName="fill" attributeType="XML" from="#00bfe4" to="white" begin="0s" dur=".9s" repeatCount="indefinite"/>
  <animate id="svg_24" attributeName="fill" attributeType="XML" from="white" to="#00bfe4" begin="0s" dur=".9s" repeatCount="indefinite"/>
 </g>

</svg>
